<svg width="35" height="35" viewBox="0 0 35 35" fill="none" xmlns="http://www.w3.org/2000/svg">
<circle cx="17.5" cy="17.5" r="17.0625" fill="#ECFFDD" stroke="#49A700" stroke-width="0.875"/>
<path d="M19.7135 7.39813C18.6441 7.39813 17.7775 8.26507 17.7775 9.33429C17.7775 10.4037 18.6442 11.2705 19.7135 11.2705C20.7829 11.2705 21.6497 10.4035 21.6497 9.33429C21.6497 8.26491 20.7827 7.39813 19.7135 7.39813ZM14.8708 11.0811C14.3755 11.0821 13.9817 11.2869 13.7419 11.8073L11.9972 15.8607C11.7647 16.4005 12.1335 17.0146 12.6947 17.1894L13.7652 17.5227C14.3265 17.6975 14.919 17.3861 15.0938 16.8249L16.4226 12.561C16.5974 11.9999 16.2864 11.4071 15.7251 11.2323C15.5014 11.1625 15.2884 11.1137 15.0891 11.0925C15.0143 11.0847 14.9415 11.0807 14.8707 11.0809L14.8708 11.0811ZM18.5404 11.615C17.886 11.633 17.2083 12.0142 17.0019 12.6793L15.7333 16.7672L15.5844 17.2476C15.5198 17.4565 15.5485 17.7821 15.75 18.1711L16.8692 20.3299L17.1861 20.9409L19.7455 25.8778C20.0158 26.4184 20.6762 26.6331 21.2128 26.355C21.7494 26.0769 21.9547 25.4134 21.6687 24.8808L18.2326 18.2529L18.7454 16.7547L19.1208 15.6581C19.7342 17.0744 21.5926 17.7015 22.7995 18.1098L22.1444 26.1008C22.1295 26.2828 22.2651 26.4425 22.4471 26.4574C22.6291 26.4722 22.7888 26.3368 22.8037 26.1547L23.4592 18.1581C23.6683 18.0821 23.8423 17.9157 23.9192 17.6883C24.0381 17.3364 23.8839 16.959 23.5719 16.7844L23.6778 15.4926C23.6927 15.3106 23.5809 15.1367 23.3564 15.136C23.1321 15.1351 23.0341 15.2977 23.0184 15.4385L22.9275 16.5482C21.8473 16.1618 21.1034 15.8089 20.7506 15.3903C20.5387 15.1387 20.3417 14.7978 20.2116 14.2892C20.0707 13.7565 20.0396 13.1949 19.9329 12.5684C19.8261 11.9418 19.195 11.5969 18.5404 11.6149L18.5404 11.615ZM15.2184 18.4257L14.0151 22.3398L11.6491 24.5997C11.2062 25.0107 11.1852 25.7048 11.6025 26.1418C12.0199 26.5787 12.7142 26.5896 13.1452 26.166L15.7197 23.707C15.8565 23.5764 15.9566 23.4123 16.0103 23.2311L16.6278 21.1443L15.2184 18.4257Z" fill="#49A700"/>
</svg>
