<svg width="35" height="35" viewBox="0 0 35 35" fill="none" xmlns="http://www.w3.org/2000/svg">
<circle cx="17.5" cy="17.5" r="17.0625" fill="#FFF5E6" stroke="#FFAD33" stroke-width="0.875"/>
<path d="M10.5754 8C10.2582 8.00113 10.0013 8.25806 10 8.57526V27.0626C9.99888 27.3818 10.2564 27.6414 10.5754 27.6426H12.524C12.6781 27.6432 12.8259 27.5823 12.9349 27.4735C13.0437 27.3645 13.1046 27.2167 13.104 27.0626V17.4676H17.7144V18.1581C17.7132 18.4772 17.9708 18.7369 18.2898 18.7381H25.4206C25.6315 18.7387 25.8261 18.6243 25.928 18.4397C26.03 18.255 26.0232 18.0295 25.9102 17.8512L23.7958 14.5114L25.9102 11.1728C26.0232 10.9946 26.0298 10.7691 25.928 10.5844C25.8259 10.3999 25.6315 10.2854 25.4206 10.2861H18.8695V9.59555C18.8692 9.4421 18.808 9.29511 18.6992 9.18695C18.5904 9.07879 18.443 9.01835 18.2896 9.01883H13.104V8.57541C13.1029 8.25642 12.8432 7.99884 12.524 8.00016L10.5754 8ZM11.1554 9.15538H11.9486V26.4861L11.1554 26.486V9.15538ZM13.1514 10.1754L17.7143 10.1752V16.3111L13.1514 16.3113V10.1754ZM18.8697 11.4413H24.3714L22.6225 14.2012V14.201C22.503 14.3899 22.503 14.6306 22.6225 14.8193L24.3714 17.5825L18.8697 17.5827V11.4413Z" fill="#FFAD33"/>
</svg>
